<svg width="124" height="33" viewBox="0 0 124 33" fill="none" xmlns="http://www.w3.org/2000/svg">
<g clip-path="url(#clip0_20005128_12669)">
<g clip-path="url(#clip1_20005128_12669)">
<g clip-path="url(#clip2_20005128_12669)">
<path d="M19.5115 15.5613C19.5115 12.0069 22.5191 10.2753 22.6103 10.1841C20.8786 7.72339 18.2356 7.44997 17.3242 7.35883C15.1369 7.08542 12.9495 8.63478 11.7647 8.63478C10.5799 8.63478 8.84828 7.35883 6.93437 7.35883C4.47362 7.35883 2.19514 8.72591 1.01034 10.9132C-1.54155 15.2879 0.372366 21.6676 2.83312 25.1309C4.10906 26.8626 5.47614 28.7765 7.39006 28.6853C9.21284 28.5942 9.94195 27.5005 12.1293 27.5005C14.3166 27.5005 14.9546 28.6853 16.8685 28.5942C18.8736 28.5942 20.0584 26.8626 21.2432 25.1309C22.7014 23.1259 23.2482 21.2119 23.2482 21.1208C23.3394 21.2119 19.5115 19.8449 19.5115 15.5613Z" fill="white"/>
<path d="M15.866 5.08035C16.8685 3.89555 17.5065 2.25505 17.3242 0.523407C15.866 0.614546 14.1344 1.52593 13.0407 2.71074C12.1293 3.71327 11.3091 5.44491 11.4913 7.08541C13.1318 7.17655 14.8635 6.26516 15.866 5.08035Z" fill="white"/>
<path d="M46.1241 28.503H43.5723L42.2052 24.2195H37.1925L35.8254 28.503H33.2736L38.1039 13.8297H41.1115L46.1241 28.503ZM41.6583 22.3967L40.3824 18.5689C40.2913 18.2043 40.0178 17.293 39.6533 15.8347C39.471 16.4727 39.2887 17.3841 38.9242 18.5689L37.6482 22.3967H41.6583Z" fill="white"/>
<path d="M58.6101 23.1259C58.6101 24.9486 58.1544 26.3157 57.1519 27.4094C56.2405 28.3208 55.1468 28.7765 53.7798 28.7765C52.3215 28.7765 51.319 28.2296 50.681 27.2271V32.7866H48.2203V21.3942C48.2203 20.3006 48.2203 19.1158 48.1292 17.9309H50.2253L50.3165 19.5714C51.1367 18.2955 52.3215 17.6575 53.962 17.6575C55.238 17.6575 56.3317 18.1132 57.1519 19.1158C58.1544 20.2094 58.6101 21.4854 58.6101 23.1259ZM56.1494 23.217C56.1494 22.2145 55.876 21.3031 55.4203 20.6651C54.8734 19.936 54.2355 19.6626 53.3241 19.6626C52.6861 19.6626 52.2304 19.8449 51.6836 20.2094C51.2279 20.574 50.8633 21.1208 50.7722 21.7588C50.681 22.0322 50.681 22.3056 50.681 22.4879V24.2195C50.681 24.9486 50.9545 25.6778 51.4101 26.1334C51.8658 26.6803 52.5038 26.9537 53.3241 26.9537C54.2355 26.9537 54.9646 26.5891 55.4203 25.9512C55.876 25.2221 56.1494 24.3107 56.1494 23.217Z" fill="white"/>
<path d="M71.0961 23.1259C71.0961 24.9486 70.6405 26.3157 69.6379 27.4094C68.7265 28.3208 67.6329 28.7765 66.2658 28.7765C64.8076 28.7765 63.805 28.2296 63.1671 27.2271V32.7866H60.7063V21.3942C60.7063 20.3006 60.7063 19.1158 60.6152 17.9309H62.7114L62.8025 19.5714C63.6228 18.2955 64.8076 17.6575 66.4481 17.6575C67.724 17.6575 68.8177 18.1132 69.6379 19.1158C70.6405 20.2094 71.0961 21.4854 71.0961 23.1259ZM68.6354 23.217C68.6354 22.2145 68.362 21.3031 67.9063 20.6651C67.3595 19.936 66.7215 19.6626 65.8101 19.6626C65.1721 19.6626 64.7164 19.8449 64.1696 20.2094C63.7139 20.574 63.3493 21.1208 63.2582 21.7588C63.1671 22.0322 63.1671 22.3056 63.1671 22.4879V24.2195C63.1671 24.9486 63.4405 25.6778 63.8962 26.1334C64.3519 26.6803 64.9898 26.9537 65.8101 26.9537C66.7215 26.9537 67.4506 26.5891 67.9063 25.9512C68.362 25.2221 68.6354 24.3107 68.6354 23.217Z" fill="white"/>
<path d="M85.1316 24.4018C85.1316 25.6778 84.6759 26.6803 83.7645 27.5005C82.762 28.3208 81.3949 28.7765 79.6632 28.7765C78.0227 28.7765 76.7468 28.5031 75.7443 27.8651L76.2911 25.86C77.3848 26.498 78.4784 26.7714 79.7544 26.7714C80.6658 26.7714 81.3949 26.5891 81.8506 26.1335C82.3974 25.7689 82.5797 25.2221 82.5797 24.493C82.5797 23.855 82.3974 23.3993 81.9417 22.9436C81.486 22.579 80.848 22.1233 79.8455 21.8499C77.2025 20.8474 75.9265 19.4803 75.9265 17.6575C75.9265 16.4727 76.3822 15.4702 77.2936 14.65C78.205 13.9208 79.481 13.4651 81.0303 13.4651C82.3974 13.4651 83.5822 13.7386 84.4936 14.1943L83.8556 16.1082C83.0354 15.6525 82.0328 15.4702 80.9392 15.4702C80.1189 15.4702 79.3898 15.6525 78.9341 16.1082C78.5696 16.4727 78.2961 16.9284 78.2961 17.4753C78.2961 18.0221 78.5696 18.5689 79.0253 18.9335C79.3898 19.298 80.1189 19.6626 81.2126 20.0271C82.4885 20.574 83.4911 21.1208 84.0379 21.8499C84.767 22.4879 85.1316 23.3993 85.1316 24.4018Z" fill="white"/>
<path d="M93.0607 19.6626H90.4176V24.8575C90.4176 26.1334 90.8733 26.8625 91.7847 26.8625C92.2404 26.8625 92.605 26.8625 92.8784 26.7714L92.9695 28.5942C92.5138 28.7765 91.8759 28.8676 91.0556 28.8676C90.1442 28.8676 89.324 28.5942 88.7771 28.0473C88.2303 27.5005 87.9569 26.498 87.9569 25.222V19.8449H86.4075V18.1132H87.9569V16.1993L90.3265 15.4702V18.1132H92.9695V19.6626H93.0607Z" fill="white"/>
<path d="M105.091 23.1259C105.091 24.7664 104.635 26.1334 103.633 27.136C102.63 28.2296 101.263 28.7765 99.6227 28.7765C97.9822 28.7765 96.7974 28.2296 95.7948 27.2271C94.8834 26.2246 94.3366 24.8575 94.3366 23.3081C94.3366 21.6676 94.7923 20.3005 95.7948 19.298C96.7974 18.2955 98.0733 17.7487 99.7138 17.7487C101.354 17.7487 102.63 18.2955 103.542 19.298C104.635 20.2094 105.091 21.5765 105.091 23.1259ZM102.63 23.217C102.63 22.2145 102.448 21.3942 101.992 20.6651C101.445 19.8449 100.716 19.3892 99.8049 19.3892C98.8024 19.3892 98.0733 19.8449 97.6176 20.6651C97.1619 21.3942 96.9796 22.2145 96.9796 23.217C96.9796 24.2195 97.1619 25.0398 97.6176 25.7689C98.1644 26.5891 98.8936 27.0448 99.8049 27.0448C100.716 27.0448 101.445 26.5891 101.992 25.7689C102.357 25.0398 102.63 24.2195 102.63 23.217Z" fill="white"/>
<path d="M112.929 20.0271C112.655 20.0271 112.473 19.936 112.2 19.936C111.38 19.936 110.65 20.2094 110.195 20.8474C109.83 21.3942 109.557 22.1233 109.557 22.9436V28.5031H107.096V21.2119C107.096 20.0271 107.096 18.8423 107.005 17.8398H109.101L109.192 19.8449H109.283C109.557 19.1158 109.921 18.5689 110.468 18.2044C111.015 17.8398 111.562 17.6575 112.2 17.6575C112.382 17.6575 112.655 17.6575 112.838 17.6575V20.0271H112.929Z" fill="white"/>
<path d="M123.774 22.7613C123.774 23.217 123.774 23.5815 123.683 23.855H116.392C116.392 24.8575 116.757 25.6777 117.486 26.2246C118.124 26.6803 118.853 26.9537 119.855 26.9537C120.949 26.9537 121.952 26.7714 122.772 26.4068L123.136 28.0473C122.134 28.503 120.858 28.6853 119.491 28.6853C117.759 28.6853 116.483 28.2296 115.481 27.2271C114.478 26.2246 114.023 24.9486 114.023 23.3081C114.023 21.6676 114.478 20.3917 115.39 19.298C116.301 18.2043 117.577 17.5664 119.217 17.5664C120.767 17.5664 121.952 18.1132 122.772 19.298C123.41 20.3005 123.774 21.3942 123.774 22.7613ZM121.496 22.1233C121.496 21.3942 121.314 20.8474 121.04 20.3005C120.585 19.6626 119.947 19.298 119.126 19.298C118.306 19.298 117.668 19.6626 117.212 20.3005C116.848 20.8474 116.574 21.3942 116.483 22.1233H121.496Z" fill="white"/>
<path d="M40.8381 4.80695C40.8381 6.08289 40.4735 7.08542 39.6533 7.72339C38.9241 8.36137 37.8305 8.63478 36.4634 8.63478C35.8254 8.63478 35.1874 8.63478 34.7318 8.54364V1.43481C35.3697 1.34367 36.0077 1.25253 36.7368 1.25253C38.0128 1.25253 39.0153 1.52595 39.6533 2.07278C40.4735 2.71076 40.8381 3.62214 40.8381 4.80695ZM39.6533 4.80695C39.6533 3.9867 39.3798 3.34873 38.9241 2.89303C38.4684 2.43734 37.8305 2.25506 36.9191 2.25506C36.5545 2.25506 36.19 2.25506 35.9166 2.3462V7.72339C36.0988 7.72339 36.3723 7.72339 36.7368 7.72339C37.6482 7.72339 38.3773 7.44998 38.833 6.99428C39.3798 6.44745 39.6533 5.71834 39.6533 4.80695Z" fill="white"/>
<path d="M47.4912 5.90061C47.4912 6.72086 47.2178 7.35883 46.7621 7.90567C46.3064 8.4525 45.5773 8.72592 44.8482 8.72592C44.0279 8.72592 43.4811 8.4525 42.9342 7.99681C42.4786 7.44997 42.2051 6.812 42.2051 6.08289C42.2051 5.26264 42.4786 4.62467 42.9342 4.07784C43.3899 3.531 44.0279 3.34872 44.8482 3.34872C45.6684 3.34872 46.3064 3.62214 46.7621 4.07784C47.3089 4.44239 47.4912 5.08036 47.4912 5.90061ZM46.3064 5.90061C46.3064 5.44492 46.2153 4.98922 46.033 4.62467C45.7596 4.16897 45.395 3.9867 44.9393 3.9867C44.4836 3.9867 44.1191 4.16897 43.8456 4.62467C43.6634 4.98922 43.5722 5.35378 43.5722 5.90061C43.5722 6.35631 43.6634 6.812 43.8456 7.17656C44.1191 7.63225 44.4836 7.81453 44.9393 7.81453C45.395 7.81453 45.7596 7.63225 46.033 7.17656C46.2153 6.812 46.3064 6.44745 46.3064 5.90061Z" fill="white"/>
<path d="M56.4228 3.34872L54.7823 8.54364H53.6887L52.9596 6.26517C52.7773 5.71834 52.6861 5.1715 52.5039 4.62467C52.4127 5.1715 52.2304 5.71834 52.0482 6.26517L51.3191 8.54364H50.2254L48.676 3.34872H49.8608L50.4988 5.80947C50.6811 6.35631 50.7722 6.99428 50.8634 7.44997C50.9545 6.99428 51.1368 6.44745 51.3191 5.80947L52.0482 3.34872H53.0507L53.7798 5.80947C53.9621 6.44745 54.0532 6.99428 54.2355 7.54111C54.3266 6.99428 54.4178 6.44745 54.6001 5.80947L55.238 3.34872H56.4228Z" fill="white"/>
<path d="M62.6203 8.54362H61.4354V5.53604C61.4354 4.62465 61.0709 4.16896 60.3418 4.16896C59.9772 4.16896 59.7038 4.2601 59.5215 4.53351C59.3393 4.80693 59.157 5.08035 59.157 5.4449V8.54362H57.9722V4.80693C57.9722 4.35124 57.9722 3.89554 57.9722 3.34871H58.9747L59.0658 4.16896C59.2481 3.89554 59.4304 3.71326 59.7038 3.53098C60.0684 3.34871 60.3418 3.25757 60.7975 3.25757C61.2532 3.25757 61.7089 3.43985 62.0734 3.71326C62.5291 4.07782 62.7114 4.71579 62.7114 5.4449V8.54362H62.6203Z" fill="white"/>
<path d="M65.9012 8.54365H64.7164V0.979126H65.9012V8.54365Z" fill="white"/>
<path d="M72.8278 5.90061C72.8278 6.72086 72.5544 7.35883 72.0987 7.90567C71.643 8.4525 70.9139 8.72592 70.1848 8.72592C69.3645 8.72592 68.8177 8.4525 68.2709 7.99681C67.8152 7.44997 67.5417 6.812 67.5417 6.08289C67.5417 5.26264 67.8152 4.62467 68.2709 4.07784C68.7265 3.531 69.3645 3.34872 70.1848 3.34872C71.005 3.34872 71.643 3.62214 72.0987 4.07784C72.6455 4.44239 72.8278 5.08036 72.8278 5.90061ZM71.643 5.90061C71.643 5.44492 71.5519 4.98922 71.3696 4.62467C71.0962 4.16897 70.7316 3.9867 70.2759 3.9867C69.8202 3.9867 69.4557 4.16897 69.1822 4.62467C69 4.98922 68.9088 5.35378 68.9088 5.90061C68.9088 6.35631 69 6.812 69.1822 7.17656C69.4557 7.63225 69.8202 7.81453 70.2759 7.81453C70.7316 7.81453 71.0962 7.63225 71.3696 7.17656C71.5519 6.812 71.643 6.44745 71.643 5.90061Z" fill="white"/>
<path d="M78.5696 8.54362H77.4759L77.3847 7.90565C77.0202 8.36135 76.4734 8.63476 75.8354 8.63476C75.2886 8.63476 74.924 8.45248 74.6506 8.17907C74.3772 7.90565 74.1949 7.5411 74.1949 7.0854C74.1949 6.44743 74.4683 5.99174 75.0151 5.62718C75.562 5.26262 76.2911 5.17149 77.2936 5.17149V5.08035C77.2936 4.35124 76.9291 4.07782 76.1999 4.07782C75.6531 4.07782 75.1974 4.16896 74.8329 4.44237L74.5594 3.71326C75.0151 3.43985 75.6531 3.25757 76.3822 3.25757C77.7493 3.25757 78.4784 3.98668 78.4784 5.4449V7.35882C78.5696 7.81451 78.5696 8.27021 78.5696 8.54362ZM77.3847 6.72085V5.99174C76.1088 5.99174 75.3797 6.35629 75.3797 7.0854C75.3797 7.35882 75.4708 7.5411 75.6531 7.72337C75.8354 7.90565 76.0177 7.90565 76.1999 7.90565C76.4734 7.90565 76.7468 7.81451 76.9291 7.63224C77.1113 7.44996 77.2936 7.26768 77.3847 6.99426C77.3847 6.90312 77.3847 6.81199 77.3847 6.72085Z" fill="white"/>
<path d="M85.405 8.54365H84.3113L84.2202 7.7234C83.8556 8.36138 83.3088 8.63479 82.4885 8.63479C81.8506 8.63479 81.3037 8.45251 80.9392 7.90568C80.4835 7.44999 80.3012 6.81201 80.3012 5.99177C80.3012 5.17151 80.5746 4.4424 81.0303 3.98671C81.486 3.53101 82.0328 3.2576 82.6708 3.2576C83.3999 3.2576 83.8556 3.53101 84.2202 3.98671V0.979126H85.405V7.17657C85.3138 7.63226 85.3138 8.08796 85.405 8.54365ZM84.129 6.35632V5.44493C84.129 5.26265 84.129 5.17151 84.129 5.08038C84.0379 4.80696 83.8556 4.62468 83.6733 4.4424C83.4911 4.26013 83.2176 4.16899 82.8531 4.16899C82.3974 4.16899 82.0328 4.35126 81.8506 4.71582C81.5772 5.08038 81.486 5.53607 81.486 5.99177C81.486 6.5386 81.5772 6.90315 81.8506 7.26771C82.124 7.63226 82.4885 7.81454 82.8531 7.81454C83.2176 7.81454 83.5822 7.63226 83.7645 7.35885C84.0379 6.99429 84.129 6.72088 84.129 6.35632Z" fill="white"/>
<path d="M95.5214 5.90061C95.5214 6.72086 95.248 7.35883 94.7923 7.90567C94.3366 8.4525 93.6075 8.72592 92.8784 8.72592C92.0581 8.72592 91.5113 8.4525 90.9645 7.99681C90.5088 7.44997 90.2354 6.812 90.2354 6.08289C90.2354 5.26264 90.5088 4.62467 90.9645 4.07784C91.4202 3.531 92.0581 3.34872 92.8784 3.34872C93.6986 3.34872 94.3366 3.62214 94.7923 4.07784C95.3391 4.44239 95.5214 5.08036 95.5214 5.90061ZM94.3366 5.90061C94.3366 5.44492 94.2455 4.98922 94.0632 4.62467C93.7898 4.16897 93.4252 3.9867 92.9695 3.9867C92.5138 3.9867 92.1493 4.16897 91.8759 4.62467C91.6936 4.98922 91.6024 5.35378 91.6024 5.90061C91.6024 6.35631 91.6936 6.812 91.8759 7.17656C92.1493 7.63225 92.5138 7.81453 92.9695 7.81453C93.4252 7.81453 93.7898 7.63225 94.0632 7.17656C94.1543 6.812 94.3366 6.44745 94.3366 5.90061Z" fill="white"/>
<path d="M101.901 8.54362H100.716V5.53604C100.716 4.62465 100.352 4.16896 99.6227 4.16896C99.2581 4.16896 98.9847 4.2601 98.8024 4.53351C98.6201 4.80693 98.4379 5.08035 98.4379 5.4449V8.54362H97.2531V4.80693C97.2531 4.35124 97.2531 3.89554 97.2531 3.34871H98.2556L98.3467 4.16896C98.529 3.89554 98.7113 3.71326 98.9847 3.53098C99.3492 3.34871 99.6227 3.25757 100.078 3.25757C100.534 3.25757 100.99 3.43985 101.354 3.71326C101.81 4.07782 101.992 4.71579 101.992 5.4449V8.54362H101.901Z" fill="white"/>
<path d="M109.921 4.16896H108.645V6.72085C108.645 7.35882 108.919 7.72338 109.375 7.72338C109.557 7.72338 109.739 7.72338 109.921 7.63224V8.54363C109.648 8.63477 109.375 8.63477 109.01 8.63477C108.554 8.63477 108.19 8.45249 107.916 8.17907C107.643 7.90566 107.552 7.44996 107.552 6.81199V4.16896H106.732V3.25757H107.552V2.34618L108.737 1.98163V3.25757H110.013L109.921 4.16896Z" fill="white"/>
<path d="M116.21 8.54365H115.025V5.62721C115.025 4.71582 114.661 4.26013 113.931 4.26013C113.385 4.26013 113.02 4.53354 112.838 5.08038C112.838 5.17151 112.747 5.35379 112.747 5.53607V8.63479H111.562V0.979126H112.747V4.07785C113.111 3.53101 113.658 3.2576 114.387 3.2576C114.843 3.2576 115.299 3.43988 115.572 3.71329C115.936 4.07785 116.21 4.71582 116.21 5.44493V8.54365Z" fill="white"/>
<path d="M122.681 5.71832C122.681 5.9006 122.681 6.08287 122.681 6.26515H119.126C119.126 6.81199 119.309 7.17654 119.673 7.44996C119.947 7.72337 120.402 7.81451 120.858 7.81451C121.405 7.81451 121.861 7.72337 122.316 7.5411L122.499 8.36135C121.952 8.54362 121.405 8.7259 120.676 8.7259C119.856 8.7259 119.218 8.45248 118.762 7.99679C118.306 7.5411 118.033 6.90312 118.033 6.08287C118.033 5.26262 118.215 4.62465 118.671 4.07782C119.126 3.53098 119.764 3.25757 120.585 3.25757C121.314 3.25757 121.952 3.53098 122.316 4.07782C122.499 4.53351 122.681 5.08035 122.681 5.71832ZM121.587 5.35376C121.587 4.98921 121.496 4.71579 121.314 4.44237C121.131 4.07782 120.767 3.98668 120.402 3.98668C120.038 3.98668 119.673 4.16896 119.491 4.44237C119.309 4.71579 119.218 4.98921 119.126 5.35376H121.587Z" fill="white"/>
</g>
</g>
</g>
<defs>
<clipPath id="clip0_20005128_12669">
<rect width="124" height="32.81" fill="white"/>
</clipPath>
<clipPath id="clip1_20005128_12669">
<rect width="124" height="32.81" fill="white" transform="translate(-0.200012 0.25)"/>
</clipPath>
<clipPath id="clip2_20005128_12669">
<rect width="123.949" height="32.81" fill="white" transform="translate(-0.174438 0.25)"/>
</clipPath>
</defs>
</svg>
