<svg width="145" height="33" viewBox="0 0 145 33" fill="none" xmlns="http://www.w3.org/2000/svg">
<g clip-path="url(#clip0_20005128_12696)">
<g clip-path="url(#clip1_20005128_12696)">
<g clip-path="url(#clip2_20005128_12696)">
<path d="M49.786 3.92751C49.786 4.94939 49.4794 5.6647 48.8663 6.27783C48.151 6.99314 47.3335 7.2997 46.2094 7.2997C45.1875 7.2997 44.2678 6.99314 43.5525 6.27783C42.8372 5.56251 42.4285 4.74501 42.4285 3.72314C42.4285 2.70126 42.8372 1.78158 43.5525 1.16845C44.2678 0.453138 45.1875 0.146576 46.2094 0.146576C46.7203 0.146576 47.2313 0.248763 47.64 0.453138C48.151 0.657513 48.4575 0.861888 48.7641 1.27064L48.2532 1.67939C47.7422 1.06626 47.1291 0.861888 46.3116 0.861888C45.5963 0.861888 44.881 1.16845 44.37 1.67939C43.8591 2.19033 43.5525 2.90564 43.5525 3.72314C43.5525 4.54064 43.8591 5.25595 44.37 5.76689C44.881 6.27783 45.5963 6.58439 46.3116 6.58439C47.1291 6.58439 47.7422 6.27783 48.3553 5.76689C48.6619 5.46033 48.8663 4.94939 48.9685 4.33626H46.4138V3.31439H49.8882C49.786 3.51876 49.786 3.72314 49.786 3.92751Z" fill="white"/>
<path d="M55.3041 0.964076H52.0341V3.2122H54.9975V4.0297H52.0341V6.27783H55.3041V7.09533H51.1144V0.146576H55.3041V0.964076Z" fill="white"/>
<path d="M59.1872 7.09533H58.2675V0.964076H56.2238V0.146576H61.1288V0.964076H59.085V7.09533H59.1872Z" fill="white"/>
<path d="M64.7053 7.09533V0.146576H65.625V7.09533H64.7053Z" fill="white"/>
<path d="M69.7125 7.09533H68.7928V0.964076H66.7491V0.146576H71.7563V0.964076H69.7125V7.09533Z" fill="white"/>
<path d="M81.0553 6.17565C80.34 6.89097 79.5225 7.19753 78.3984 7.19753C77.3765 7.19753 76.4569 6.89097 75.7415 6.17565C75.0262 5.46034 74.7197 4.64284 74.7197 3.62097C74.7197 2.59909 75.0262 1.78159 75.7415 1.06628C76.4569 0.350966 77.2744 0.0444031 78.3984 0.0444031C79.4203 0.0444031 80.34 0.350966 81.0553 1.06628C81.7706 1.78159 82.0772 2.59909 82.0772 3.62097C82.0772 4.64284 81.7706 5.46034 81.0553 6.17565ZM76.4568 5.56253C76.9678 6.07347 77.6831 6.38003 78.3984 6.38003C79.1137 6.38003 79.829 6.07347 80.34 5.56253C80.8509 5.05159 81.1575 4.33628 81.1575 3.51878C81.1575 2.70128 80.8509 1.98597 80.34 1.47503C79.829 0.964091 79.1137 0.657528 78.3984 0.657528C77.5809 0.657528 76.9678 0.964091 76.4568 1.47503C75.9459 1.98597 75.6394 2.70128 75.6394 3.51878C75.6394 4.43847 75.9459 5.05159 76.4568 5.56253Z" fill="white"/>
<path d="M83.4056 7.09533V0.146576H84.5297L88.0041 5.56251V4.23408V0.146576H88.9238V7.09533H88.0041L84.3253 1.37283V2.70126V7.09533H83.4056Z" fill="white"/>
<path d="M74.5153 17.3141C71.7562 17.3141 69.4059 19.3578 69.4059 22.2191C69.4059 25.0803 71.6541 27.1241 74.5153 27.1241C77.2744 27.1241 79.6247 24.9781 79.6247 22.2191C79.6247 19.3578 77.2744 17.3141 74.5153 17.3141ZM74.5153 25.2847C72.9825 25.2847 71.6541 24.0585 71.6541 22.3213C71.6541 20.5841 72.9825 19.3578 74.5153 19.3578C76.0481 19.3578 77.3766 20.5841 77.3766 22.3213C77.3766 23.9563 76.0481 25.2847 74.5153 25.2847ZM63.3769 17.3141C60.6178 17.3141 58.2675 19.3578 58.2675 22.2191C58.2675 25.0803 60.5156 27.1241 63.3769 27.1241C66.1359 27.1241 68.4862 24.9781 68.4862 22.2191C68.4862 19.3578 66.2381 17.3141 63.3769 17.3141ZM63.3769 25.2847C61.8441 25.2847 60.5156 24.0585 60.5156 22.3213C60.5156 20.5841 61.8441 19.3578 63.3769 19.3578C64.9097 19.3578 66.2381 20.5841 66.2381 22.3213C66.2381 23.9563 64.9097 25.2847 63.3769 25.2847ZM50.1947 18.8469V20.9928H55.3041C55.2019 22.2191 54.7931 23.0366 54.18 23.6497C53.4647 24.365 52.2384 25.1825 50.1947 25.1825C47.0269 25.1825 44.5744 22.73 44.5744 19.5622C44.5744 16.3944 47.0269 13.9419 50.1947 13.9419C51.9319 13.9419 53.1581 14.555 54.0778 15.4747L55.6106 13.9419C54.2822 12.7156 52.6472 11.796 50.1947 11.796C45.8006 11.796 42.2241 15.2703 42.2241 19.46C42.2241 23.6497 45.9028 27.1241 50.1947 27.1241C52.545 27.1241 54.2822 26.4088 55.7128 24.9781C57.1434 23.5475 57.5522 21.606 57.5522 20.0731C57.5522 19.5622 57.5522 19.1535 57.45 18.7447H50.1947V18.8469ZM104.252 20.4819C103.843 19.3578 102.515 17.3141 99.8578 17.3141C97.2009 17.3141 95.055 19.3578 95.055 22.2191C95.055 24.9781 97.2009 27.1241 100.062 27.1241C102.412 27.1241 103.741 25.6935 104.252 24.9781L102.515 23.8541C101.902 24.6716 101.186 25.1825 100.062 25.1825C98.9381 25.1825 98.1206 24.6716 97.6097 23.6497L104.354 20.8906L104.252 20.4819ZM97.3031 22.1169C97.2009 20.1753 98.8359 19.2556 99.96 19.2556C100.88 19.2556 101.595 19.6644 101.799 20.2775L97.3031 22.1169ZM91.785 26.9197H94.0331V12.3069H91.785V26.9197ZM88.1063 18.4381C87.4931 17.825 86.5734 17.3141 85.3472 17.3141C82.7925 17.3141 80.4422 19.46 80.4422 22.3213C80.4422 25.0803 82.7925 27.2263 85.3472 27.2263C86.5734 27.2263 87.4931 26.7153 88.0041 26.1022H88.1063V26.8175C88.1063 28.7591 87.0844 29.6788 85.4494 29.6788C84.1209 29.6788 83.2013 28.7591 82.8947 27.9416L80.9531 28.6569C81.4641 29.9853 82.9969 31.6203 85.4494 31.6203C88.1063 31.6203 90.2522 30.0875 90.2522 26.511V17.6206H88.1063V18.4381ZM85.5516 25.2847C84.0187 25.2847 82.6903 24.0585 82.6903 22.3213C82.6903 20.5841 84.0187 19.2556 85.5516 19.2556C87.0844 19.2556 88.3106 20.4819 88.3106 22.3213C88.3106 23.9563 87.0844 25.2847 85.5516 25.2847ZM114.675 12.3069H109.361V26.8175H111.609V21.2994H114.675C117.128 21.2994 119.58 19.5622 119.58 16.8031C119.58 14.0441 117.128 12.3069 114.675 12.3069ZM114.675 19.3578H111.507V14.3506H114.675C116.31 14.3506 117.332 15.6791 117.332 16.8031C117.332 18.0294 116.412 19.3578 114.675 19.3578ZM128.47 17.2119C126.835 17.2119 125.2 17.9272 124.485 19.46L126.427 20.2775C126.835 19.46 127.653 19.2556 128.47 19.2556C129.594 19.2556 130.821 19.971 130.821 21.095V21.2994C130.412 21.095 129.594 20.6863 128.47 20.6863C126.324 20.6863 124.178 21.8103 124.178 23.9563C124.178 25.8978 125.916 27.1241 127.857 27.1241C129.39 27.1241 130.207 26.511 130.718 25.6935H130.821V26.8175H132.967V21.2994C132.967 18.7447 131.025 17.2119 128.47 17.2119ZM128.164 25.2847C127.448 25.2847 126.427 24.9781 126.427 24.0585C126.427 22.9344 127.653 22.5256 128.777 22.5256C129.799 22.5256 130.208 22.73 130.821 23.0366C130.616 24.2628 129.492 25.2847 128.164 25.2847ZM140.835 17.6206L138.28 23.9563H138.178L135.521 17.6206H133.171L137.156 26.4088L134.908 31.3138H137.258L143.39 17.6206H140.835ZM120.806 26.9197H123.054V12.3069H120.806V26.9197Z" fill="white"/>
<path d="M4.82344 0.759705C4.51687 1.06627 4.3125 1.67939 4.3125 2.3947V28.146C4.3125 28.8613 4.51687 29.4744 4.82344 29.781L4.92563 29.8831L19.7428 15.4747V15.1681L4.82344 0.759705Z" fill="url(#paint0_linear_20005128_12696)"/>
<path d="M24.6478 20.1753L19.7428 15.3725V15.066L24.6478 10.2632L24.75 10.3653L30.5747 13.6353C32.2097 14.555 32.2097 16.0878 30.5747 17.0075L24.75 20.1753H24.6478Z" fill="url(#paint1_linear_20005128_12696)"/>
<path d="M24.75 20.1753L19.7428 15.2703L4.82343 29.7809C5.43655 30.2919 6.35624 30.3941 7.37811 29.7809L24.75 20.1753Z" fill="url(#paint2_linear_20005128_12696)"/>
<path d="M24.75 10.3653L7.37811 0.657526C6.35624 0.146589 5.43655 0.146589 4.82343 0.759714L19.6406 15.2703L24.75 10.3653Z" fill="url(#paint3_linear_20005128_12696)"/>
</g>
</g>
</g>
<defs>
<linearGradient id="paint0_linear_20005128_12696" x1="18.2706" y1="28.535" x2="-1.26367" y2="8.52738" gradientUnits="userSpaceOnUse">
<stop stop-color="#00A0FF"/>
<stop offset="0.0066" stop-color="#00A1FF"/>
<stop offset="0.2601" stop-color="#00BEFF"/>
<stop offset="0.5122" stop-color="#00D2FF"/>
<stop offset="0.7604" stop-color="#00DFFF"/>
<stop offset="1" stop-color="#00E3FF"/>
</linearGradient>
<linearGradient id="paint1_linear_20005128_12696" x1="32.7689" y1="15.2453" x2="3.91365" y2="15.2453" gradientUnits="userSpaceOnUse">
<stop stop-color="#FFE000"/>
<stop offset="0.4087" stop-color="#FFBD00"/>
<stop offset="0.7754" stop-color="#FFA500"/>
<stop offset="1" stop-color="#FF9C00"/>
</linearGradient>
<linearGradient id="paint2_linear_20005128_12696" x1="12.1419" y1="22.2239" x2="-14.3482" y2="-4.90803" gradientUnits="userSpaceOnUse">
<stop stop-color="#FF3A44"/>
<stop offset="1" stop-color="#C31162"/>
</linearGradient>
<linearGradient id="paint3_linear_20005128_12696" x1="-8.25974" y1="29.1666" x2="3.56928" y2="17.0511" gradientUnits="userSpaceOnUse">
<stop stop-color="#32A071"/>
<stop offset="0.0685" stop-color="#2DA771"/>
<stop offset="0.4762" stop-color="#15CF74"/>
<stop offset="0.8009" stop-color="#06E775"/>
<stop offset="1" stop-color="#00F076"/>
</linearGradient>
<clipPath id="clip0_20005128_12696">
<rect width="145" height="33" fill="white"/>
</clipPath>
<clipPath id="clip1_20005128_12696">
<rect width="139" height="32.7" fill="white" transform="translate(4.29999 -0.159973)"/>
</clipPath>
<clipPath id="clip2_20005128_12696">
<rect width="138.975" height="32.7" fill="white" transform="translate(4.3125 -0.159973)"/>
</clipPath>
</defs>
</svg>
