<svg width="18" height="19" viewBox="0 0 18 19" fill="none" xmlns="http://www.w3.org/2000/svg">
<path d="M14.8609 3.66548H3.13901C2.72651 3.66548 2.37703 3.80871 2.09058 4.09517C1.80412 4.38162 1.66089 4.72537 1.66089 5.12642V13.9264C1.66089 14.3275 1.80412 14.6741 2.09058 14.9663C2.37703 15.2584 2.72651 15.4045 3.13901 15.4045H14.8609C15.2734 15.4045 15.6229 15.2584 15.9093 14.9663C16.1958 14.6741 16.339 14.3275 16.339 13.9264V5.12642C16.339 4.72537 16.1958 4.38162 15.9093 4.09517C15.6229 3.80871 15.2734 3.66548 14.8609 3.66548ZM14.8609 5.12642V5.50454L8.99995 10.0764L3.13901 5.50454V5.12642H14.8609ZM3.13901 13.9264V7.36079L8.55308 11.5717C8.61037 11.6176 8.67912 11.6548 8.75933 11.6834C8.83953 11.7121 8.91974 11.7264 8.99995 11.7264C9.08016 11.7264 9.16037 11.7121 9.24058 11.6834C9.32078 11.6548 9.38953 11.6176 9.44683 11.5717L14.8609 7.36079V13.9264H3.13901Z" fill="#9397AD"/>
</svg>
