<svg width="28" height="29" viewBox="0 0 28 29" fill="none" xmlns="http://www.w3.org/2000/svg">
<g clip-path="url(#clip0_20005128_12745)">
<g clip-path="url(#clip1_20005128_12745)">
<g clip-path="url(#clip2_20005128_12745)">
<mask id="mask0_20005128_12745" style="mask-type:luminance" maskUnits="userSpaceOnUse" x="0" y="0" width="28" height="29">
<path d="M0 0.0800171H28V28.08H0V0.0800171Z" fill="white"/>
</mask>
<g mask="url(#mask0_20005128_12745)">
<path d="M13.945 28.08C13.777 28.08 13.61 28.042 13.456 27.965C13.328 27.901 10.287 26.359 7.10399 22.9C5.25169 20.892 3.71607 18.6135 2.54999 16.143C1.10599 13.075 0.247989 9.71602 0.00198947 6.16002C-0.0180105 5.87002 0.0779895 5.58402 0.268989 5.36502C0.459989 5.14602 0.73099 5.01202 1.02099 4.99302C3.02399 4.86102 4.59299 3.18402 4.59299 1.17402C4.59399 0.570017 5.08299 0.0800171 5.68699 0.0800171H22.312C22.916 0.0800171 23.406 0.570017 23.406 1.17402C23.406 3.18302 24.974 4.86002 26.976 4.99302C27.271 5.01202 27.545 5.15002 27.736 5.37502C27.927 5.60002 28.02 5.89302 27.992 6.18702C27.618 10.136 26.528 13.829 24.751 17.164C24.467 17.697 23.805 17.899 23.272 17.615C22.739 17.331 22.537 16.669 22.821 16.135C24.309 13.341 25.276 10.269 25.702 6.99002C23.462 6.40002 21.742 4.54702 21.319 2.26602H6.68099C6.25599 4.55902 4.52299 6.41702 2.26999 6.99902C2.84499 12.517 4.98999 17.341 8.65299 21.352C10.846 23.753 12.996 25.169 13.939 25.729C14.971 25.101 17.466 23.415 19.895 20.49C20.281 20.025 20.97 19.962 21.435 20.348C21.9 20.734 21.964 21.424 21.577 21.888C18.12 26.05 14.591 27.884 14.442 27.96C14.2879 28.039 14.1182 28.0801 13.945 28.08ZM14.791 22.161C15.155 21.679 15.06 20.993 14.578 20.629C13.632 19.914 12.737 19.104 11.918 18.221C9.53499 15.652 7.91899 12.635 7.10699 9.24202C7.54499 8.90402 7.95599 8.53102 8.33599 8.12602C8.96599 7.45502 9.50399 6.70702 9.93499 5.90002C10.22 5.36702 10.018 4.70502 9.48599 4.42002C8.95399 4.13502 8.29099 4.33702 8.00599 4.86902C7.66372 5.508 7.23873 6.09909 6.74199 6.62702C6.30299 7.09402 5.81099 7.50902 5.27999 7.86002C4.90699 8.10602 4.72199 8.55402 4.81099 8.99202C5.64399 13.064 7.49499 16.669 10.314 19.708C11.2158 20.6811 12.2012 21.5732 13.259 22.374C13.3734 22.4611 13.5039 22.5247 13.6429 22.5611C13.782 22.5976 13.9269 22.6061 14.0693 22.5863C14.2117 22.5665 14.3488 22.5188 14.4726 22.4458C14.5965 22.3728 14.7047 22.276 14.791 22.161Z" fill="url(#paint0_linear_20005128_12745)"/>
</g>
</g>
</g>
</g>
<defs>
<linearGradient id="paint0_linear_20005128_12745" x1="-0.00101053" y1="14.147" x2="27.998" y2="14.147" gradientUnits="userSpaceOnUse">
<stop stop-color="#6366F1"/>
<stop offset="0.5" stop-color="#8B5CF6"/>
<stop offset="1" stop-color="#D946EF"/>
</linearGradient>
<clipPath id="clip0_20005128_12745">
<rect width="28" height="28" fill="white" transform="translate(0 0.0800171)"/>
</clipPath>
<clipPath id="clip1_20005128_12745">
<rect width="28" height="28" fill="white" transform="translate(0 0.0800171)"/>
</clipPath>
<clipPath id="clip2_20005128_12745">
<rect width="28" height="28" fill="white" transform="translate(0 0.0800171)"/>
</clipPath>
</defs>
</svg>
